<?xml version="1.0" encoding="UTF-8"?>
<svg width="780px" height="840px" viewBox="0 0 780 840" version="1.1" xmlns="http://www.w3.org/2000/svg" xmlns:xlink="http://www.w3.org/1999/xlink">
    <title>background</title>
    <defs>
        <rect id="path-1" x="0" y="0" width="780" height="840"></rect>
    </defs>
    <g id="Page-1" stroke="none" stroke-width="1" fill="none" fill-rule="evenodd">
        <g id="background">
            <mask id="mask-2" fill="white">
                <use xlink:href="#path-1"></use>
            </mask>
            <use id="Rectangle" fill="#1EB954" xlink:href="#path-1"></use>
            <g id="spotify-logo" mask="url(#mask-2)" fill="#189D46" fill-rule="nonzero">
                <g transform="translate(159.000000, -45.000000)" id="Shape">
                    <path d="M515.5,0 C230.935685,0 0,230.935685 0,515.5 C0,800.064315 230.935685,1031 515.5,1031 C800.064315,1031 1031,800.064315 1031,515.5 C1031,230.935685 800.064315,0 515.5,0 Z M724.817944,758.491734 C716.087702,758.491734 710.683266,755.789516 702.576613,751.008669 C572.870161,672.852218 421.961694,669.526411 272.923992,700.082258 C264.817339,702.160887 254.216331,705.486694 248.188306,705.486694 C228.025605,705.486694 215.345968,689.48125 215.345968,672.644355 C215.345968,651.234476 228.025605,641.049194 243.615323,637.723387 C413.85504,600.100202 587.83629,603.426008 736.250403,692.183468 C748.93004,700.290121 756.413105,707.565323 756.413105,726.480847 C756.413105,745.396371 741.654839,758.491734 724.817944,758.491734 L724.817944,758.491734 Z M780.733065,622.133669 C769.924194,622.133669 762.648992,617.352823 755.165927,613.403427 C625.251613,536.494153 431.523387,505.522581 259.20504,552.291734 C249.227621,554.993952 243.823185,557.696169 234.469355,557.696169 C212.228024,557.696169 194.143952,539.612097 194.143952,517.370766 C194.143952,495.129435 204.952823,480.371169 226.362702,474.343145 C284.148589,458.129839 343.181653,446.07379 429.652621,446.07379 C564.555645,446.07379 694.885685,479.539718 797.56996,540.651411 C814.406855,550.628831 821.058468,563.516331 821.058468,581.600403 C820.850605,604.049597 803.390121,622.133669 780.733065,622.133669 L780.733065,622.133669 Z M845.170565,463.742137 C834.361694,463.742137 827.710081,461.039919 818.35625,455.635484 C670.357863,367.29375 405.748387,346.091734 234.469355,393.900202 C226.98629,395.978831 217.63246,399.304637 207.65504,399.304637 C180.217137,399.304637 159.222984,377.894758 159.222984,350.248992 C159.222984,321.979637 176.683468,305.974194 195.391129,300.569758 C268.558871,279.159879 350.456855,268.974597 439.63004,268.974597 C591.36996,268.974597 750.385081,300.569758 866.580444,368.333065 C882.79375,377.686895 893.394758,390.574395 893.394758,415.310081 C893.394758,443.579435 870.529839,463.742137 845.170565,463.742137 L845.170565,463.742137 Z"></path>
                </g>
            </g>
        </g>
    </g>
</svg>
